<?xml version="1.0"?>
<svg xmlns="http://www.w3.org/2000/svg" xmlns:xlink="http://www.w3.org/1999/xlink" version="1.1" id="Capa_1" x="0px" y="0px" viewBox="0 0 480 480" style="enable-background:new 0 0 480 480;" xml:space="preserve" width="512px" height="512px" class=""><g><path style="fill:#FA962A;" d="M360,80c26.51,0,48,21.49,48,48v136c-30.928,0-56-25.072-56-56v-88h-48V80H360z" data-original="#FA962A"/><g>
	<path style="fill:#4398D1;" d="M160.8,313.8L136,320l-27.64,6.912C86.991,332.253,72,351.453,72,373.48V480h168L160.8,313.8z" data-original="#4398D1" class=""/>
	<path style="fill:#4398D1;" d="M371.64,326.912L344,320l-24.8-6.2L240,480h168V373.48C408,351.453,393.009,332.253,371.64,326.912   L371.64,326.912z" data-original="#4398D1" class=""/>
</g><path style="fill:#3E8CC7;" d="M371.64,326.912L344,320l-24.8-6.2l-3.408,7.144l23.856,5.968  c21.366,5.345,36.353,24.544,36.352,46.568V480h32V373.48C408,351.453,393.009,332.253,371.64,326.912z" data-original="#3E8CC7"/><path style="fill:#2A7DB8;" d="M125.096,480c1.802-8.968,5.102-17.568,9.76-25.44c0.75-1.24,1.146-2.663,1.144-4.112V432h-16v16.28  c-5.546,9.843-9.335,20.577-11.2,31.72H125.096z" data-original="#2A7DB8"/><path style="fill:#FEC9A3;" d="M280,304v-56h-80v56l-39.192,9.8L199.6,400h80.8l38.792-86.2L280,304z" data-original="#FEC9A3" class=""/><path style="fill:#EBEBEB;" d="M199.6,400l32.4,80h16l32.4-80H199.6z" data-original="#EBEBEB"/><path style="fill:#87CED9;" d="M319.192,313.8L280.4,400L240,480h32l40-40v-32h32v-88L319.192,313.8z" data-original="#87CED9" class=""/><path style="fill:#2A7DB8;" d="M359.704,480c-1.802-8.968-5.102-17.568-9.76-25.44c-0.747-1.242-1.142-2.663-1.144-4.112V432h16  v16.28c5.546,9.843,9.335,20.577,11.2,31.72H359.704z" data-original="#2A7DB8"/><path style="fill:#F0B081;" d="M240,288c12.021-0.011,23.884-2.746,34.696-8c1.84-0.888,3.544-2.008,5.304-3.032V248h-80v28.968  c1.76,1.024,3.464,2.144,5.304,3.032C216.116,285.254,227.979,287.989,240,288L240,288z" data-original="#F0B081"/><g>
	<path style="fill:#87CED9;" d="M128,136h-16v-12C112,55.517,167.517,0,236,0s124,55.517,124,124v4h-16v-4   c0-59.647-48.353-108-108-108S128,64.353,128,124V136z" data-original="#87CED9" class=""/>
	<path style="fill:#87CED9;" d="M112,136h48v64h-48V136z" data-original="#87CED9" class=""/>
</g><path style="fill:#71C4D1;" d="M112,176h48v24h-48V176z" data-original="#71C4D1" class=""/><g>
	<path style="fill:#87CED9;" d="M320,128h48v64h-48V128z" data-original="#87CED9" class=""/>
	<path style="fill:#87CED9;" d="M153.752,285l-30.248-37.8c-2.272-2.841-3.508-6.371-3.504-10.008V200h16v37.192L166.248,275   L153.752,285z" data-original="#87CED9" class=""/>
</g><path style="fill:#71C4D1;" d="M320,168h48v24h-48V168z" data-original="#71C4D1" class=""/><path style="fill:#FEC9A3;" d="M277.88,105.64L272,88c-19.993,29.986-53.648,47.998-89.688,48H160v56c0,44.183,35.817,80,80,80  s80-35.817,80-80v-56C300.889,135.999,283.923,123.77,277.88,105.64z" data-original="#FEC9A3" class=""/><path style="fill:#FDB62F;" d="M240,48c-44.183,0-80,35.817-80,80v8h22.312c36.04-0.002,69.695-18.014,89.688-48l5.88,17.64  c6.043,18.13,23.009,30.359,42.12,30.36v-8C320,83.817,284.183,48,240,48z" data-original="#FDB62F"/><path style="fill:#F0B081;" d="M224,160h16v48h-16V160z" data-original="#F0B081"/><path style="fill:#F7BB8F;" d="M287.696,121.912c0.152,2.016,0.304,4,0.304,6.088v64c0.015,37.996-26.758,70.735-64,78.264  c5.259,1.128,10.621,1.71,16,1.736c44.13-0.127,79.873-35.87,80-80v-56C307.746,135.978,296.05,130.877,287.696,121.912  L287.696,121.912z" data-original="#F7BB8F"/><path style="fill:#FFA83D" d="M240,48c-5.373-0.002-10.733,0.534-16,1.6c34.993,7.177,60.988,36.685,63.696,72.304  c8.352,8.968,20.049,14.072,32.304,14.096v-8C320,83.817,284.183,48,240,48L240,48z" data-original="#FFA83D" class="active-path" data-old_color="#FFA83D"/><path style="fill:#87CED9;" d="M199.6,400l-38.792-86.2L136,320v88h32v32l40,40h32L199.6,400z" data-original="#87CED9" class=""/></g> </svg>
